<svg xmlns="http://www.w3.org/2000/svg" width="128" height="128" viewBox="0 0 128 128">
  <defs>
    <linearGradient id="g" x1="0" y1="0" x2="1" y2="1">
      <stop offset="0" stop-color="#007f97"/>
      <stop offset="1" stop-color="#4c3f77"/>
    </linearGradient>
  </defs>
  <rect x="8" y="8" width="112" height="112" rx="28" fill="#051126"/>
  <rect x="16" y="16" width="96" height="96" rx="22" fill="url(#g)" opacity="0.95"/>
  <path d="M44 88V40h22c6.5 0 11.6 1.6 15.1 4.8 3.5 3.2 5.3 7.5 5.3 12.9 0 3.8-1 7.1-3 9.8-2 2.7-4.8 4.6-8.6 5.7L88 88H74.6L63 74.6h-5.8V88H44zm13.2-24.6h8.2c2.9 0 5.1-.7 6.6-2.1 1.5-1.4 2.3-3.3 2.3-5.8 0-2.6-.8-4.6-2.3-5.9-1.5-1.3-3.7-2-6.7-2h-8.1v15.8z"
        fill="#ffffff"/>
</svg>
